<?xml version="1.0" encoding="UTF-8"?><svg xmlns="http://www.w3.org/2000/svg" xmlns:xlink="http://www.w3.org/1999/xlink" fill-opacity="1" color-rendering="auto" color-interpolation="auto" text-rendering="auto" stroke="black" stroke-linecap="square" width="1146" stroke-miterlimit="10" shape-rendering="auto" stroke-opacity="1" fill="black" stroke-dasharray="none" font-weight="normal" stroke-width="1" height="717" font-family="'Dialog'" font-style="normal" stroke-linejoin="miter" font-size="12px" stroke-dashoffset="0" image-rendering="auto">
  <!--Generated by ySVG 2.5-->
  <defs id="genericDefs"/>
  <g>
    <defs id="defs1">
      <clipPath clipPathUnits="userSpaceOnUse" id="clipPath1">
        <path d="M0 0 L1146 0 L1146 717 L0 717 L0 0 Z"/>
      </clipPath>
      <clipPath clipPathUnits="userSpaceOnUse" id="clipPath2">
        <path d="M182 70 L1328 70 L1328 787 L182 787 L182 70 Z"/>
      </clipPath>
    </defs>
    <g fill="white" text-rendering="geometricPrecision" shape-rendering="geometricPrecision" transform="translate(-182,-70)" stroke="white">
      <rect x="182" width="1146" height="717" y="70" clip-path="url(#clipPath2)" stroke="none"/>
    </g>
    <g fill="rgb(255,204,0)" text-rendering="geometricPrecision" shape-rendering="geometricPrecision" transform="matrix(1,0,0,1,-182,-70)" stroke="rgb(255,204,0)">
      <rect x="267" width="244" height="69" y="88" clip-path="url(#clipPath2)" stroke="none"/>
    </g>
    <g text-rendering="geometricPrecision" stroke-miterlimit="1.45" shape-rendering="geometricPrecision" transform="matrix(1,0,0,1,-182,-70)" stroke-linecap="butt">
      <rect fill="none" x="267" width="244" height="69" y="88" clip-path="url(#clipPath2)"/>
      <text x="332.9893" font-size="20px" y="129.4238" clip-path="url(#clipPath2)" font-family="sans-serif" stroke="none" xml:space="preserve">Гостиница</text>
    </g>
    <g fill="rgb(255,204,0)" text-rendering="geometricPrecision" shape-rendering="geometricPrecision" transform="matrix(1,0,0,1,-182,-70)" stroke="rgb(255,204,0)">
      <ellipse rx="63" ry="34.5" clip-path="url(#clipPath2)" cx="260" cy="221.5" stroke="none"/>
    </g>
    <g text-rendering="geometricPrecision" stroke-miterlimit="1.45" shape-rendering="geometricPrecision" transform="matrix(1,0,0,1,-182,-70)" stroke-linecap="butt">
      <ellipse rx="63" fill="none" ry="34.5" clip-path="url(#clipPath2)" cx="260" cy="221.5"/>
      <text x="209.8242" font-size="20px" y="228.4238" clip-path="url(#clipPath2)" font-family="sans-serif" stroke="none" xml:space="preserve">Название</text>
    </g>
    <g fill="rgb(255,204,0)" text-rendering="geometricPrecision" shape-rendering="geometricPrecision" transform="matrix(1,0,0,1,-182,-70)" stroke="rgb(255,204,0)">
      <ellipse rx="63" ry="34.5" clip-path="url(#clipPath2)" cx="416" cy="221.5" stroke="none"/>
    </g>
    <g text-rendering="geometricPrecision" stroke-miterlimit="1.45" shape-rendering="geometricPrecision" transform="matrix(1,0,0,1,-182,-70)" stroke-linecap="butt">
      <ellipse rx="63" fill="none" ry="34.5" clip-path="url(#clipPath2)" cx="416" cy="221.5"/>
      <text x="384.2471" font-size="20px" y="228.4238" clip-path="url(#clipPath2)" font-family="sans-serif" stroke="none" xml:space="preserve">Адрес</text>
    </g>
    <g fill="rgb(255,204,0)" text-rendering="geometricPrecision" shape-rendering="geometricPrecision" transform="matrix(1,0,0,1,-182,-70)" stroke="rgb(255,204,0)">
      <ellipse rx="63" ry="34.5" clip-path="url(#clipPath2)" cx="565" cy="221.5" stroke="none"/>
    </g>
    <g text-rendering="geometricPrecision" stroke-miterlimit="1.45" shape-rendering="geometricPrecision" transform="matrix(1,0,0,1,-182,-70)" stroke-linecap="butt">
      <ellipse rx="63" fill="none" ry="34.5" clip-path="url(#clipPath2)" cx="565" cy="221.5"/>
      <text x="509.5605" font-size="20px" y="228.4238" clip-path="url(#clipPath2)" font-family="sans-serif" stroke="none" xml:space="preserve">Категория</text>
    </g>
    <g fill="rgb(255,204,0)" text-rendering="geometricPrecision" shape-rendering="geometricPrecision" transform="matrix(1,0,0,1,-182,-70)" stroke="rgb(255,204,0)">
      <rect x="862" width="244" height="69" y="90.75" clip-path="url(#clipPath2)" stroke="none"/>
    </g>
    <g text-rendering="geometricPrecision" stroke-miterlimit="1.45" shape-rendering="geometricPrecision" transform="matrix(1,0,0,1,-182,-70)" stroke-linecap="butt">
      <rect fill="none" x="862" width="244" height="69" y="90.75" clip-path="url(#clipPath2)"/>
      <text x="938.6191" font-size="20px" y="132.1738" clip-path="url(#clipPath2)" font-family="sans-serif" stroke="none" xml:space="preserve">Комната</text>
    </g>
    <g fill="rgb(255,204,0)" text-rendering="geometricPrecision" shape-rendering="geometricPrecision" transform="matrix(1,0,0,1,-182,-70)" stroke="rgb(255,204,0)">
      <ellipse rx="63" ry="34.5" clip-path="url(#clipPath2)" cx="840" cy="246.5" stroke="none"/>
    </g>
    <g text-rendering="geometricPrecision" stroke-miterlimit="1.45" shape-rendering="geometricPrecision" transform="matrix(1,0,0,1,-182,-70)" stroke-linecap="butt">
      <ellipse rx="63" fill="none" ry="34.5" clip-path="url(#clipPath2)" cx="840" cy="246.5"/>
      <text x="806.3184" font-size="20px" y="253.4238" clip-path="url(#clipPath2)" font-family="sans-serif" stroke="none" xml:space="preserve">Номер</text>
    </g>
    <g fill="rgb(255,204,0)" text-rendering="geometricPrecision" shape-rendering="geometricPrecision" transform="matrix(1,0,0,1,-182,-70)" stroke="rgb(255,204,0)">
      <ellipse rx="63" ry="34.5" clip-path="url(#clipPath2)" cx="996" cy="246.5" stroke="none"/>
    </g>
    <g text-rendering="geometricPrecision" stroke-miterlimit="1.45" shape-rendering="geometricPrecision" transform="matrix(1,0,0,1,-182,-70)" stroke-linecap="butt">
      <ellipse rx="63" fill="none" ry="34.5" clip-path="url(#clipPath2)" cx="996" cy="246.5"/>
      <text x="932.5723" font-size="20px" y="253.4238" clip-path="url(#clipPath2)" font-family="sans-serif" stroke="none" xml:space="preserve">Кол-во мест</text>
    </g>
    <g fill="rgb(255,204,0)" text-rendering="geometricPrecision" shape-rendering="geometricPrecision" transform="matrix(1,0,0,1,-182,-70)" stroke="rgb(255,204,0)">
      <ellipse rx="63" ry="34.5" clip-path="url(#clipPath2)" cx="1145" cy="246.5" stroke="none"/>
    </g>
    <g text-rendering="geometricPrecision" stroke-miterlimit="1.45" shape-rendering="geometricPrecision" transform="matrix(1,0,0,1,-182,-70)" stroke-linecap="butt">
      <ellipse rx="63" fill="none" ry="34.5" clip-path="url(#clipPath2)" cx="1145" cy="246.5"/>
      <text x="1089.5605" font-size="20px" y="253.4238" clip-path="url(#clipPath2)" font-family="sans-serif" stroke="none" xml:space="preserve">Категория</text>
    </g>
    <g fill="rgb(255,204,0)" text-rendering="geometricPrecision" shape-rendering="geometricPrecision" transform="matrix(1,0,0,1,-182,-70)" stroke="rgb(255,204,0)">
      <path d="M602 122.5 L686.5 85.25 L771 122.5 L686.5 159.75 Z" fill-rule="evenodd" clip-path="url(#clipPath2)" stroke="none"/>
    </g>
    <g text-rendering="geometricPrecision" stroke-miterlimit="1.45" shape-rendering="geometricPrecision" transform="matrix(1,0,0,1,-182,-70)" stroke-linecap="butt">
      <path fill="none" d="M602 122.5 L686.5 85.25 L771 122.5 L686.5 159.75 Z" fill-rule="evenodd" clip-path="url(#clipPath2)"/>
      <text x="634.8237" font-size="14px" y="127.3467" clip-path="url(#clipPath2)" font-family="sans-serif" stroke="none" xml:space="preserve">Принадлежит</text>
    </g>
    <g fill="rgb(255,204,0)" text-rendering="geometricPrecision" shape-rendering="geometricPrecision" transform="matrix(1,0,0,1,-182,-70)" stroke="rgb(255,204,0)">
      <rect x="300" width="244" height="69" y="569" clip-path="url(#clipPath2)" stroke="none"/>
    </g>
    <g text-rendering="geometricPrecision" stroke-miterlimit="1.45" shape-rendering="geometricPrecision" transform="matrix(1,0,0,1,-182,-70)" stroke-linecap="butt">
      <rect fill="none" x="300" width="244" height="69" y="569" clip-path="url(#clipPath2)"/>
      <text x="364.8174" font-size="20px" y="610.4238" clip-path="url(#clipPath2)" font-family="sans-serif" stroke="none" xml:space="preserve">Сотрудник</text>
    </g>
    <g fill="rgb(255,204,0)" text-rendering="geometricPrecision" shape-rendering="geometricPrecision" transform="matrix(1,0,0,1,-182,-70)" stroke="rgb(255,204,0)">
      <ellipse rx="63" ry="34.5" clip-path="url(#clipPath2)" cx="293" cy="702.5" stroke="none"/>
    </g>
    <g text-rendering="geometricPrecision" stroke-miterlimit="1.45" shape-rendering="geometricPrecision" transform="matrix(1,0,0,1,-182,-70)" stroke-linecap="butt">
      <ellipse rx="63" fill="none" ry="34.5" clip-path="url(#clipPath2)" cx="293" cy="702.5"/>
      <text x="271.96" font-size="20px" y="709.4238" clip-path="url(#clipPath2)" font-family="sans-serif" stroke="none" xml:space="preserve">Имя</text>
    </g>
    <g fill="rgb(255,204,0)" text-rendering="geometricPrecision" shape-rendering="geometricPrecision" transform="matrix(1,0,0,1,-182,-70)" stroke="rgb(255,204,0)">
      <ellipse rx="63" ry="34.5" clip-path="url(#clipPath2)" cx="449" cy="702.5" stroke="none"/>
    </g>
    <g text-rendering="geometricPrecision" stroke-miterlimit="1.45" shape-rendering="geometricPrecision" transform="matrix(1,0,0,1,-182,-70)" stroke-linecap="butt">
      <ellipse rx="63" fill="none" ry="34.5" clip-path="url(#clipPath2)" cx="449" cy="702.5"/>
      <text x="389.7959" font-size="20px" y="709.4238" clip-path="url(#clipPath2)" font-family="sans-serif" stroke="none" xml:space="preserve">Должность</text>
    </g>
    <g fill="rgb(255,204,0)" text-rendering="geometricPrecision" shape-rendering="geometricPrecision" transform="matrix(1,0,0,1,-182,-70)" stroke="rgb(255,204,0)">
      <ellipse rx="63" ry="34.5" clip-path="url(#clipPath2)" cx="598" cy="702.5" stroke="none"/>
    </g>
    <g text-rendering="geometricPrecision" stroke-miterlimit="1.45" shape-rendering="geometricPrecision" transform="matrix(1,0,0,1,-182,-70)" stroke-linecap="butt">
      <ellipse rx="63" fill="none" ry="34.5" clip-path="url(#clipPath2)" cx="598" cy="702.5"/>
      <text x="564.6553" font-size="20px" y="709.4238" clip-path="url(#clipPath2)" font-family="sans-serif" stroke="none" xml:space="preserve">Оклад</text>
    </g>
    <g fill="rgb(255,204,0)" text-rendering="geometricPrecision" shape-rendering="geometricPrecision" transform="matrix(1,0,0,1,-182,-70)" stroke="rgb(255,204,0)">
      <path d="M244 401.75 L328.5 364.5 L413 401.75 L328.5 439 Z" fill-rule="evenodd" clip-path="url(#clipPath2)" stroke="none"/>
    </g>
    <g text-rendering="geometricPrecision" stroke-miterlimit="1.45" shape-rendering="geometricPrecision" transform="matrix(1,0,0,1,-182,-70)" stroke-linecap="butt">
      <path fill="none" d="M244 401.75 L328.5 364.5 L413 401.75 L328.5 439 Z" fill-rule="evenodd" clip-path="url(#clipPath2)"/>
      <text x="276.8237" font-size="14px" y="406.5967" clip-path="url(#clipPath2)" font-family="sans-serif" stroke="none" xml:space="preserve">Принадлежит</text>
    </g>
    <g fill="rgb(255,204,0)" text-rendering="geometricPrecision" shape-rendering="geometricPrecision" transform="matrix(1,0,0,1,-182,-70)" stroke="rgb(255,204,0)">
      <rect x="958" width="244" height="69" y="581.5" clip-path="url(#clipPath2)" stroke="none"/>
    </g>
    <g text-rendering="geometricPrecision" stroke-miterlimit="1.45" shape-rendering="geometricPrecision" transform="matrix(1,0,0,1,-182,-70)" stroke-linecap="butt">
      <rect fill="none" x="958" width="244" height="69" y="581.5" clip-path="url(#clipPath2)"/>
      <text x="1050.5664" font-size="20px" y="622.9238" clip-path="url(#clipPath2)" font-family="sans-serif" stroke="none" xml:space="preserve">Гость</text>
    </g>
    <g fill="rgb(255,204,0)" text-rendering="geometricPrecision" shape-rendering="geometricPrecision" transform="matrix(1,0,0,1,-182,-70)" stroke="rgb(255,204,0)">
      <ellipse rx="63" ry="34.5" clip-path="url(#clipPath2)" cx="936" cy="737.25" stroke="none"/>
    </g>
    <g text-rendering="geometricPrecision" stroke-miterlimit="1.45" shape-rendering="geometricPrecision" transform="matrix(1,0,0,1,-182,-70)" stroke-linecap="butt">
      <ellipse rx="63" fill="none" ry="34.5" clip-path="url(#clipPath2)" cx="936" cy="737.25"/>
      <text x="914.96" font-size="20px" y="744.1738" clip-path="url(#clipPath2)" font-family="sans-serif" stroke="none" xml:space="preserve">Имя</text>
    </g>
    <g fill="rgb(255,204,0)" text-rendering="geometricPrecision" shape-rendering="geometricPrecision" transform="matrix(1,0,0,1,-182,-70)" stroke="rgb(255,204,0)">
      <ellipse rx="63" ry="34.5" clip-path="url(#clipPath2)" cx="1092" cy="737.25" stroke="none"/>
    </g>
    <g text-rendering="geometricPrecision" stroke-miterlimit="1.45" shape-rendering="geometricPrecision" transform="matrix(1,0,0,1,-182,-70)" stroke-linecap="butt">
      <ellipse rx="63" fill="none" ry="34.5" clip-path="url(#clipPath2)" cx="1092" cy="737.25"/>
      <text x="1040.0518" font-size="20px" y="744.1738" clip-path="url(#clipPath2)" font-family="sans-serif" stroke="none" xml:space="preserve">Документ</text>
    </g>
    <g fill="rgb(255,204,0)" text-rendering="geometricPrecision" shape-rendering="geometricPrecision" transform="matrix(1,0,0,1,-182,-70)" stroke="rgb(255,204,0)">
      <ellipse rx="63" ry="34.5" clip-path="url(#clipPath2)" cx="1241" cy="737.25" stroke="none"/>
    </g>
    <g text-rendering="geometricPrecision" stroke-miterlimit="1.45" shape-rendering="geometricPrecision" transform="matrix(1,0,0,1,-182,-70)" stroke-linecap="butt">
      <ellipse rx="63" fill="none" ry="34.5" clip-path="url(#clipPath2)" cx="1241" cy="737.25"/>
      <text x="1189.5303" font-size="20px" y="744.1738" clip-path="url(#clipPath2)" font-family="sans-serif" stroke="none" xml:space="preserve">Контакты</text>
    </g>
    <g fill="rgb(255,204,0)" text-rendering="geometricPrecision" shape-rendering="geometricPrecision" transform="matrix(1,0,0,1,-182,-70)" stroke="rgb(255,204,0)">
      <path d="M564 412.5 L648.5 375.25 L733 412.5 L648.5 449.75 Z" fill-rule="evenodd" clip-path="url(#clipPath2)" stroke="none"/>
    </g>
    <g text-rendering="geometricPrecision" stroke-miterlimit="1.45" shape-rendering="geometricPrecision" transform="matrix(1,0,0,1,-182,-70)" stroke-linecap="butt">
      <path fill="none" d="M564 412.5 L648.5 375.25 L733 412.5 L648.5 449.75 Z" fill-rule="evenodd" clip-path="url(#clipPath2)"/>
      <text x="618.251" font-size="14px" y="417.3467" clip-path="url(#clipPath2)" font-family="sans-serif" stroke="none" xml:space="preserve">Убирает</text>
    </g>
    <g fill="rgb(255,204,0)" text-rendering="geometricPrecision" shape-rendering="geometricPrecision" transform="matrix(1,0,0,1,-182,-70)" stroke="rgb(255,204,0)">
      <path d="M955.5 454.75 L1040 417.5 L1124.5 454.75 L1040 492 Z" fill-rule="evenodd" clip-path="url(#clipPath2)" stroke="none"/>
    </g>
    <g text-rendering="geometricPrecision" stroke-miterlimit="1.45" shape-rendering="geometricPrecision" transform="matrix(1,0,0,1,-182,-70)" stroke-linecap="butt">
      <path fill="none" d="M955.5 454.75 L1040 417.5 L1124.5 454.75 L1040 492 Z" fill-rule="evenodd" clip-path="url(#clipPath2)"/>
      <text x="998.3555" font-size="14px" y="459.5967" clip-path="url(#clipPath2)" font-family="sans-serif" stroke="none" xml:space="preserve">Проживает</text>
    </g>
    <g fill="rgb(255,204,0)" text-rendering="geometricPrecision" shape-rendering="geometricPrecision" transform="matrix(1,0,0,1,-182,-70)" stroke="rgb(255,204,0)">
      <ellipse rx="63" ry="34.5" clip-path="url(#clipPath2)" cx="1241" cy="383.5" stroke="none"/>
    </g>
    <g text-rendering="geometricPrecision" stroke-miterlimit="1.45" shape-rendering="geometricPrecision" transform="matrix(1,0,0,1,-182,-70)" stroke-linecap="butt">
      <ellipse rx="63" fill="none" ry="34.5" clip-path="url(#clipPath2)" cx="1241" cy="383.5"/>
      <text x="1201.4492" font-size="20px" y="390.4238" clip-path="url(#clipPath2)" font-family="sans-serif" stroke="none" xml:space="preserve">Период</text>
    </g>
    <g fill="rgb(255,204,0)" text-rendering="geometricPrecision" shape-rendering="geometricPrecision" transform="matrix(1,0,0,1,-182,-70)" stroke="rgb(255,204,0)">
      <ellipse rx="63" ry="34.5" clip-path="url(#clipPath2)" cx="1250" cy="476.5" stroke="none"/>
    </g>
    <g text-rendering="geometricPrecision" stroke-miterlimit="1.45" shape-rendering="geometricPrecision" transform="matrix(1,0,0,1,-182,-70)" stroke-linecap="butt">
      <ellipse rx="63" fill="none" ry="34.5" clip-path="url(#clipPath2)" cx="1250" cy="476.5"/>
      <text x="1211.1182" font-size="20px" y="483.4238" clip-path="url(#clipPath2)" font-family="sans-serif" stroke="none" xml:space="preserve">Оплата</text>
    </g>
    <g fill="rgb(255,204,0)" text-rendering="geometricPrecision" shape-rendering="geometricPrecision" transform="matrix(1,0,0,1,-182,-70)" stroke="rgb(255,204,0)">
      <ellipse rx="63" ry="34.5" clip-path="url(#clipPath2)" cx="795.5" cy="471.5" stroke="none"/>
    </g>
    <g text-rendering="geometricPrecision" stroke-miterlimit="1.45" shape-rendering="geometricPrecision" transform="matrix(1,0,0,1,-182,-70)" stroke-linecap="butt">
      <ellipse rx="63" fill="none" ry="34.5" clip-path="url(#clipPath2)" cx="795.5" cy="471.5"/>
      <text x="759.4014" font-size="20px" y="466.7832" clip-path="url(#clipPath2)" font-family="sans-serif" stroke="none" xml:space="preserve">Время </text>
      <text x="758.4102" font-size="20px" y="490.0645" clip-path="url(#clipPath2)" font-family="sans-serif" stroke="none" xml:space="preserve">уборки</text>
      <path fill="none" d="M296.5935 193.4166 L344.0454 157" clip-path="url(#clipPath2)"/>
      <path fill="none" d="M406.6941 187.3784 L398.4091 157" clip-path="url(#clipPath2)"/>
      <path fill="none" d="M521.0534 196.78 L450.3333 157" clip-path="url(#clipPath2)"/>
      <path fill="none" d="M874.348 217.5786 L943.0268 159.75" clip-path="url(#clipPath2)"/>
      <path fill="none" d="M992.5906 212.0506 L987.4144 159.75" clip-path="url(#clipPath2)"/>
      <path fill="none" d="M1107.9493 218.5969 L1029.8103 159.75" clip-path="url(#clipPath2)"/>
      <path fill="none" d="M862 124.1223 L777.2366 123.3387" clip-path="url(#clipPath2)"/>
      <path d="M769.2369 123.2648 L781.1902 128.3755 L778.2366 123.348 L781.2827 118.3759 Z" clip-path="url(#clipPath2)" stroke="none"/>
      <path fill="none" d="M601.9929 122.5 L519 122.5" clip-path="url(#clipPath2)"/>
      <path d="M511 122.5 L523 127.5 L520 122.5 L523 117.5 Z" clip-path="url(#clipPath2)" stroke="none"/>
      <path fill="none" d="M329.5935 674.4166 L377.0454 638" clip-path="url(#clipPath2)"/>
      <path fill="none" d="M439.6941 668.3785 L431.4091 638" clip-path="url(#clipPath2)"/>
      <path fill="none" d="M554.0534 677.78 L483.3333 638" clip-path="url(#clipPath2)"/>
      <path fill="none" d="M406.0111 569 L346.1891 439.9186" clip-path="url(#clipPath2)"/>
      <path d="M342.8252 432.6602 L343.3345 445.6502 L346.6096 440.8259 L352.4075 441.4454 Z" clip-path="url(#clipPath2)" stroke="none"/>
      <path fill="none" d="M335.8631 367.7641 L379.8316 164.8186" clip-path="url(#clipPath2)"/>
      <path d="M381.5255 157 L374.098 167.6692 L379.6199 165.7959 L383.8713 169.7866 Z" clip-path="url(#clipPath2)" stroke="none"/>
      <path fill="none" d="M970.348 708.3286 L1039.0269 650.5" clip-path="url(#clipPath2)"/>
      <path fill="none" d="M1088.5906 702.8005 L1083.4144 650.5" clip-path="url(#clipPath2)"/>
      <path fill="none" d="M1203.9493 709.3469 L1125.8103 650.5" clip-path="url(#clipPath2)"/>
      <path fill="none" d="M462.9123 569 L613.3635 442.1295" clip-path="url(#clipPath2)"/>
      <path d="M619.4792 436.9722 L607.0823 440.8857 L612.599 442.7741 L613.5289 448.5305 Z" clip-path="url(#clipPath2)" stroke="none"/>
      <path fill="none" d="M677.2296 387.9021 L937.6281 164.953" clip-path="url(#clipPath2)"/>
      <path d="M943.705 159.75 L931.3377 163.7564 L936.8684 165.6033 L937.8414 171.3525 Z" clip-path="url(#clipPath2)" stroke="none"/>
      <path fill="none" d="M1071.4419 581.5 L1050.2549 496.0898" clip-path="url(#clipPath2)"/>
      <path d="M1048.3287 488.3252 L1046.365 501.176 L1050.4956 497.0604 L1056.0709 498.7683 Z" clip-path="url(#clipPath2)" stroke="none"/>
      <path fill="none" d="M1034.1143 420.1187 L991.2039 167.6369" clip-path="url(#clipPath2)"/>
      <path d="M989.8634 159.75 L986.9448 172.4181 L991.3714 168.6228 L996.8034 170.7426 Z" clip-path="url(#clipPath2)" stroke="none"/>
      <path fill="none" d="M1086.8395 438.1465 L1188.113 402.2472" clip-path="url(#clipPath2)"/>
      <path fill="none" d="M1108.4192 461.8363 L1188.0974 470.0887" clip-path="url(#clipPath2)"/>
      <path fill="none" d="M692.7507 430.2605 L744.6865 451.1054" clip-path="url(#clipPath2)"/>
    </g>
  </g>
</svg>
